<svg id="visual" viewBox="0 0 900 600" width="900" height="600" xmlns="http://www.w3.org/2000/svg" xmlns:xlink="http://www.w3.org/1999/xlink" version="1.1"><path d="M0 145L13.7 147C27.3 149 54.7 153 82 155C109.3 157 136.7 157 163.8 156C191 155 218 153 245.2 146C272.3 139 299.7 127 327 119C354.3 111 381.7 107 409 127C436.3 147 463.7 191 491 199C518.3 207 545.7 179 573 185C600.3 191 627.7 231 654.8 229C682 227 709 183 736.2 174C763.3 165 790.7 191 818 195C845.3 199 872.7 181 886.3 172L900 163L900 0L886.3 0C872.7 0 845.3 0 818 0C790.7 0 763.3 0 736.2 0C709 0 682 0 654.8 0C627.7 0 600.3 0 573 0C545.7 0 518.3 0 491 0C463.7 0 436.3 0 409 0C381.7 0 354.3 0 327 0C299.7 0 272.3 0 245.2 0C218 0 191 0 163.8 0C136.7 0 109.3 0 82 0C54.7 0 27.3 0 13.7 0L0 0Z" fill="#6198ff"></path><path d="M0 193L13.7 207C27.3 221 54.7 249 82 258C109.3 267 136.7 257 163.8 257C191 257 218 267 245.2 259C272.3 251 299.7 225 327 217C354.3 209 381.7 219 409 245C436.3 271 463.7 313 491 310C518.3 307 545.7 259 573 252C600.3 245 627.7 279 654.8 278C682 277 709 241 736.2 242C763.3 243 790.7 281 818 291C845.3 301 872.7 283 886.3 274L900 265L900 161L886.3 170C872.7 179 845.3 197 818 193C790.7 189 763.3 163 736.2 172C709 181 682 225 654.8 227C627.7 229 600.3 189 573 183C545.7 177 518.3 205 491 197C463.7 189 436.3 145 409 125C381.7 105 354.3 109 327 117C299.7 125 272.3 137 245.2 144C218 151 191 153 163.8 154C136.7 155 109.3 155 82 153C54.7 151 27.3 147 13.7 145L0 143Z" fill="#3c80ff"></path><path d="M0 427L13.7 423C27.3 419 54.7 411 82 415C109.3 419 136.7 435 163.8 439C191 443 218 435 245.2 425C272.3 415 299.7 403 327 414C354.3 425 381.7 459 409 469C436.3 479 463.7 465 491 452C518.3 439 545.7 427 573 425C600.3 423 627.7 431 654.8 424C682 417 709 395 736.2 394C763.3 393 790.7 413 818 417C845.3 421 872.7 409 886.3 403L900 397L900 263L886.3 272C872.7 281 845.3 299 818 289C790.7 279 763.3 241 736.2 240C709 239 682 275 654.8 276C627.7 277 600.3 243 573 250C545.7 257 518.3 305 491 308C463.7 311 436.3 269 409 243C381.7 217 354.3 207 327 215C299.7 223 272.3 249 245.2 257C218 265 191 255 163.8 255C136.7 255 109.3 265 82 256C54.7 247 27.3 219 13.7 205L0 191Z" fill="#0066ff"></path><path d="M0 547L13.7 549C27.3 551 54.7 555 82 550C109.3 545 136.7 531 163.8 526C191 521 218 525 245.2 532C272.3 539 299.7 549 327 555C354.3 561 381.7 563 409 556C436.3 549 463.7 533 491 529C518.3 525 545.7 533 573 532C600.3 531 627.7 521 654.8 516C682 511 709 511 736.2 515C763.3 519 790.7 527 818 535C845.3 543 872.7 551 886.3 555L900 559L900 395L886.3 401C872.7 407 845.3 419 818 415C790.7 411 763.3 391 736.2 392C709 393 682 415 654.8 422C627.7 429 600.3 421 573 423C545.7 425 518.3 437 491 450C463.7 463 436.3 477 409 467C381.7 457 354.3 423 327 412C299.7 401 272.3 413 245.2 423C218 433 191 441 163.8 437C136.7 433 109.3 417 82 413C54.7 409 27.3 417 13.7 421L0 425Z" fill="#0059dd"></path><path d="M0 601L13.7 601C27.3 601 54.7 601 82 601C109.3 601 136.7 601 163.8 601C191 601 218 601 245.2 601C272.3 601 299.7 601 327 601C354.3 601 381.7 601 409 601C436.3 601 463.7 601 491 601C518.3 601 545.7 601 573 601C600.3 601 627.7 601 654.8 601C682 601 709 601 736.2 601C763.3 601 790.7 601 818 601C845.3 601 872.7 601 886.3 601L900 601L900 557L886.3 553C872.7 549 845.3 541 818 533C790.7 525 763.3 517 736.2 513C709 509 682 509 654.8 514C627.7 519 600.3 529 573 530C545.7 531 518.3 523 491 527C463.7 531 436.3 547 409 554C381.7 561 354.3 559 327 553C299.7 547 272.3 537 245.2 530C218 523 191 519 163.8 524C136.7 529 109.3 543 82 548C54.7 553 27.3 549 13.7 547L0 545Z" fill="#004cbb"></path></svg>